<?xml version="1.0" standalone="no"?>
<!DOCTYPE svg PUBLIC "-//W3C//DTD SVG 20010904//EN"
 "http://www.w3.org/TR/2001/REC-SVG-20010904/DTD/svg10.dtd">
<svg version="1.0" xmlns="http://www.w3.org/2000/svg"
 width="376.000000pt" height="376.000000pt" viewBox="0 0 376.000000 376.000000"
 preserveAspectRatio="xMidYMid meet">
<metadata>
Created by potrace 1.14, written by Peter Selinger 2001-2017
</metadata>
<g transform="translate(0.000000,376.000000) scale(0.100000,-0.100000)"
fill="#000000" stroke="none">
<path d="M1890 2840 c0 -20 6 -20 846 -20 800 0 845 1 842 18 -3 16 -53 17
-846 20 -837 2 -842 2 -842 -18z"/>
<path d="M1801 2668 c-10 -24 -44 -96 -75 -162 -31 -65 -56 -123 -56 -128 0
-5 10 -8 21 -6 17 2 37 37 95 162 41 87 74 162 74 167 0 5 -9 9 -20 9 -15 0
-26 -12 -39 -42z"/>
<path d="M2281 2668 c-10 -24 -44 -96 -75 -162 -31 -65 -56 -123 -56 -128 0
-5 10 -8 21 -6 17 2 37 37 95 162 41 87 74 162 74 167 0 5 -9 9 -20 9 -15 0
-26 -12 -39 -42z"/>
<path d="M3426 2546 c-42 -90 -76 -167 -76 -170 0 -3 9 -6 21 -6 16 0 33 28
90 146 83 175 89 194 62 194 -16 0 -36 -34 -97 -164z"/>
<path d="M2610 2360 c0 -20 6 -20 366 -20 343 0 365 1 362 18 -3 16 -30 17
-366 20 -357 2 -362 2 -362 -18z"/>
<path d="M1561 2193 c-41 -82 -131 -282 -131 -292 0 -6 8 -11 19 -11 14 0 36
39 95 164 42 90 76 167 76 170 0 3 -9 6 -20 6 -13 0 -26 -13 -39 -37z"/>
<path d="M2041 2188 c-10 -24 -44 -96 -75 -162 -31 -65 -56 -123 -56 -128 0
-5 10 -8 21 -6 17 2 37 37 95 162 41 87 74 162 74 167 0 5 -9 9 -20 9 -15 0
-26 -12 -39 -42z"/>
<path d="M2150 2222 c0 -5 33 -81 74 -168 58 -123 79 -160 95 -162 12 -2 21 1
21 7 0 5 -33 81 -73 168 -59 126 -78 159 -95 161 -12 2 -22 -1 -22 -6z"/>
<path d="M3114 2215 c3 -8 38 -85 77 -170 57 -122 76 -155 92 -155 27 0 21 19
-62 194 -58 121 -74 146 -92 146 -15 0 -19 -5 -15 -15z"/>
<path d="M440 1880 c0 -19 7 -20 245 -20 238 0 245 1 245 20 0 19 -7 20 -245
20 -238 0 -245 -1 -245 -20z"/>
<path d="M2370 1880 c0 -20 6 -20 246 -20 228 0 245 1 242 18 -3 16 -24 17
-246 20 -237 2 -242 2 -242 -18z"/>
<path d="M300 1589 c-41 -89 -76 -166 -78 -170 -2 -5 7 -9 20 -9 21 0 33 19
99 161 40 89 76 165 77 170 2 5 -7 9 -20 9 -20 0 -33 -20 -98 -161z"/>
<path d="M841 1713 c-41 -82 -131 -282 -131 -292 0 -6 8 -11 19 -11 14 0 36
39 95 164 42 90 76 167 76 170 0 3 -9 6 -20 6 -13 0 -26 -13 -39 -37z"/>
<path d="M1321 1713 c-41 -82 -131 -282 -131 -292 0 -6 8 -11 19 -11 14 0 36
39 95 164 42 90 76 167 76 170 0 3 -9 6 -20 6 -13 0 -26 -13 -39 -37z"/>
<path d="M1801 1708 c-10 -24 -44 -96 -75 -162 -31 -65 -56 -123 -56 -128 0
-5 10 -8 21 -6 17 2 37 37 95 162 41 87 74 162 74 167 0 5 -9 9 -20 9 -15 0
-26 -12 -39 -42z"/>
<path d="M2706 1586 c-42 -90 -76 -167 -76 -170 0 -3 9 -6 21 -6 16 0 33 28
90 146 83 175 89 194 62 194 -16 0 -36 -34 -97 -164z"/>
<path d="M3186 1586 c-42 -90 -76 -167 -76 -170 0 -3 9 -6 21 -6 16 0 33 28
90 146 83 175 89 194 62 194 -16 0 -36 -34 -97 -164z"/>
<path d="M920 1400 c0 -19 7 -20 125 -20 118 0 125 1 125 20 0 19 -7 20 -125
20 -118 0 -125 -1 -125 -20z"/>
<path d="M1890 1400 c0 -20 7 -20 360 -20 353 0 360 0 360 20 0 20 -7 20 -360
20 -353 0 -360 0 -360 -20z"/>
<path d="M222 1261 c2 -5 37 -81 78 -170 65 -140 78 -161 98 -161 13 0 22 4
20 9 -1 5 -37 81 -77 170 -66 142 -78 161 -99 161 -13 0 -22 -4 -20 -9z"/>
<path d="M1561 1233 c-41 -82 -131 -282 -131 -292 0 -6 8 -11 19 -11 14 0 36
39 95 164 42 90 76 167 76 170 0 3 -9 6 -20 6 -13 0 -26 -13 -39 -37z"/>
<path d="M1801 1228 c-10 -24 -44 -96 -75 -162 -31 -65 -56 -123 -56 -128 0
-5 10 -8 21 -6 17 2 37 37 95 162 41 87 74 162 74 167 0 5 -9 9 -20 9 -15 0
-26 -12 -39 -42z"/>
<path d="M2946 1106 c-42 -90 -76 -167 -76 -170 0 -3 9 -6 21 -6 16 0 33 28
90 146 83 175 89 194 62 194 -16 0 -36 -34 -97 -164z"/>
<path d="M440 920 c0 -20 7 -20 485 -20 478 0 485 0 485 20 0 20 -7 20 -485
20 -478 0 -485 0 -485 -20z"/>
<path d="M1890 920 c0 -20 6 -20 486 -20 457 0 485 1 482 18 -3 16 -35 17
-486 20 -477 2 -482 2 -482 -18z"/>
</g>
</svg>
